<?xml version="1.0" standalone="no"?>
<!DOCTYPE svg PUBLIC "-//W3C//DTD SVG 20010904//EN"
 "http://www.w3.org/TR/2001/REC-SVG-20010904/DTD/svg10.dtd">
<svg version="1.0" xmlns="http://www.w3.org/2000/svg"
 width="129.000000pt" height="158.000000pt" viewBox="0 0 129.000000 158.000000"
 preserveAspectRatio="xMidYMid meet">

<g transform="translate(0.000000,158.000000) scale(0.100000,-0.100000)"
fill="#000000" stroke="none">
<path d="M35 968 c0 -502 -3 -621 -14 -658 -8 -26 -16 -102 -18 -177 l-4 -133
645 0 646 0 0 356 0 357 -52 -7 c-29 -3 -68 -6 -85 -6 -23 0 -33 -5 -33 -15 0
-23 -46 -19 -80 7 -17 12 -30 29 -30 38 0 9 -15 38 -32 66 l-33 49 -1 185 c-2
274 -16 568 -25 505 -4 -27 -8 -90 -8 -139 l-1 -90 -34 41 c-28 32 -46 43 -98
56 -91 23 -118 26 -118 13 0 -6 -4 -5 -9 3 -7 11 -12 11 -32 -2 -13 -8 -38
-18 -55 -21 -25 -6 -37 -19 -68 -76 -31 -57 -36 -75 -30 -105 l6 -35 -46 0
-46 0 0 200 c0 110 -4 200 -9 200 -6 0 -21 -257 -23 -398 0 -33 6 -36 66 -35
l53 1 32 -65 c17 -36 29 -72 26 -81 -3 -10 -31 -29 -63 -44 -54 -26 -116 -61
-166 -93 -12 -8 -26 -12 -30 -8 -4 5 -6 1 -4 -7 2 -9 -4 -15 -14 -15 -10 0
-23 -7 -30 -15 -11 -12 -11 -12 5 0 17 13 17 12 0 -18 -12 -22 -21 -28 -29
-21 -8 7 -14 6 -19 -1 -10 -16 -55 -12 -55 5 0 8 -6 15 -14 15 -8 0 -17 8 -19
18 -3 9 -6 -8 -8 -38 -3 -54 -9 79 -24 558 -5 133 -11 242 -14 242 -3 0 -6
-276 -6 -612z m585 127 c0 -8 -2 -15 -4 -15 -2 0 -6 7 -10 15 -3 8 -1 15 4 15
6 0 10 -7 10 -15z m107 -21 c-3 -3 -12 -4 -19 -1 -8 3 -5 6 6 6 11 1 17 -2 13
-5z m178 -153 c-5 -18 -9 -21 -18 -12 -6 6 -24 11 -39 11 -27 0 -28 2 -17 23
7 12 25 38 41 57 15 19 29 44 30 55 1 11 3 -9 5 -45 2 -35 1 -75 -2 -89z
m-715 -184 c-10 -9 -12 -8 -6 8 5 16 2 15 -14 -5 -24 -30 -26 -19 -3 16 14 23
17 24 26 9 6 -11 5 -21 -3 -28z m875 -541 c16 -11 17 -17 7 -29 -7 -8 -22 -17
-33 -20 -16 -4 -18 -3 -9 8 7 8 9 23 5 35 -7 23 3 26 30 6z m-55 -5 c0 -5 -5
-11 -11 -13 -5 -2 -11 -11 -13 -20 -1 -10 -11 -25 -22 -35 -11 -10 -18 -27
-16 -39 3 -20 -2 -21 -52 -22 -58 0 -73 12 -33 28 18 7 12 9 -28 9 -27 1 -62
7 -76 15 -14 7 -38 16 -53 20 -15 4 -25 10 -22 15 12 19 126 -7 126 -29 0 -12
87 -13 95 -1 3 5 19 12 36 16 20 5 29 12 25 21 -3 7 2 20 10 29 17 17 34 20
34 6z m80 -50 c-11 -21 -30 -37 -30 -25 0 8 30 44 37 44 2 0 -1 -9 -7 -19z"/>
<path d="M768 128 c5 -5 16 -8 23 -6 8 3 3 7 -10 11 -17 4 -21 3 -13 -5z"/>
<path d="M190 811 c0 -6 4 -13 10 -16 6 -3 7 1 4 9 -7 18 -14 21 -14 7z"/>
<path d="M1068 783 c7 -3 16 -2 19 1 4 3 -2 6 -13 5 -11 0 -14 -3 -6 -6z"/>
<path d="M1105 781 c3 -5 -7 -11 -22 -13 -16 -2 -27 -7 -26 -13 3 -15 42 -18
58 -5 14 12 10 40 -7 40 -5 0 -7 -4 -3 -9z"/>
<path d="M1153 763 c9 -2 23 -2 30 0 6 3 -1 5 -18 5 -16 0 -22 -2 -12 -5z"/>
<path d="M1120 720 c0 -5 16 -10 35 -10 19 0 35 5 35 10 0 6 -16 10 -35 10
-19 0 -35 -4 -35 -10z"/>
</g>
</svg>
